<svg xmlns="http://www.w3.org/2000/svg" width="203" height="30" viewBox="0 0 203 30">
  <g id="Group_1" data-name="Group 1" transform="translate(-140 -93)">
    <text id="Startup_Growth" data-name="Startup Growth" transform="translate(182 116)" fill="#fff" font-size="24" font-family="Signika-SemiBold, Signika" font-weight="600"><tspan x="0" y="0">Startup Growth</tspan></text>
    <path id="iconmonstr-rocket-19_1_" data-name="iconmonstr-rocket-19 (1)" d="M27.847,2.044C27.418,2.014,27,2,26.587,2c-8.921,0-14,6.8-15.848,12.274l4.9,4.9c5.631-2.017,12.27-6.907,12.27-15.733,0-.456-.028-.922-.065-1.4ZM16.149,16.75l-2.99-2.99c1.267-2.966,4.867-9.278,12.653-9.667-.261,5.988-4.191,10.3-9.663,12.657Zm5.675,1.594q-.851.581-1.689,1.048a6.432,6.432,0,0,1-1.4,2.752,4.162,4.162,0,0,0-.461-1.8c-.513.233-1,.434-1.467.609.685,1.772-.013,3.081-.949,4.309a6.259,6.259,0,0,0,3.866-1.871,7.323,7.323,0,0,0,2.1-5.044ZM9.565,11.634a4.179,4.179,0,0,0-1.8-.456,6.472,6.472,0,0,1,2.725-1.4c.326-.573.692-1.139,1.077-1.694a7.33,7.33,0,0,0-5.047,2.1,6.273,6.273,0,0,0-1.87,3.866c1.228-.937,2.539-1.635,4.31-.948C9.142,12.617,9.341,12.126,9.565,11.634Zm8.026.687a1.037,1.037,0,1,1,1.467,0,1.033,1.033,0,0,1-1.467,0Zm5.133-5.133a2.074,2.074,0,1,0,0,2.934,2.075,2.075,0,0,0,0-2.934ZM20.743,9.169a.727.727,0,1,1,1.029,0A.728.728,0,0,1,20.743,9.169Zm-7.55,10.495A9.073,9.073,0,0,1,6.541,22.9,6.281,6.281,0,0,1,0,16.728a8.135,8.135,0,0,1,2.376-5.453c-3.723,5.974,1.31,11.779,7.785,5.358l.89.89A10.96,10.96,0,0,1,7.6,20.591a8.116,8.116,0,0,0,4.672-1.853Z" transform="translate(140 94.74)" fill="#fff"/>
  </g>
</svg>
